<?xml version="1.0" encoding="UTF-8"?>
<svg id="Layer_1" xmlns="http://www.w3.org/2000/svg" xmlns:xlink="http://www.w3.org/1999/xlink"
    viewBox="0 0 595.28 595.28">
    <defs>
        <style>
            .cls-1{fill:url(#linear-gradient);}.cls-2{fill:#fff;}.cls-3{fill:#d29400;}.cls-4{fill:#28b8d1;}.cls-5{fill:#26325b;}</style>
        <linearGradient id="linear-gradient" x1="227.87" y1="481.71" x2="493.96" y2="215.62"
            gradientUnits="userSpaceOnUse">
            <stop offset="0" stop-color="#d29400" />
            <stop offset="1" stop-color="#fab600" />
        </linearGradient>
    </defs>
    <g>
        <path class="cls-5"
            d="m354.42,200.39v32.86h107.77c12.58,0,22.77,10.19,22.77,22.77v83.23c0,12.56-10.19,22.77-22.77,22.77h-107.77v107.77c0,12.58-10.19,22.77-22.77,22.77h-83.23c-12.58,0-22.77-10.19-22.77-22.77v-41.2h-32.86v41.46c0,31.25,25.33,56.58,56.58,56.58h81.31c31.25,0,56.58-25.33,56.58-56.58v-75.18h75.18c31.25,0,56.58-25.33,56.58-56.58v-81.29c0-31.26-25.34-56.6-56.6-56.6h-75.17v-75.17c0-31.25-25.33-56.58-56.58-56.58h-81.29c-31.26,0-56.6,25.34-56.6,56.6v41.44h32.86v-41.2c0-12.58,10.2-22.78,22.78-22.78h84.64c11.33,0,20.55,9.13,20.65,20.46l.7,77.23Z" />
        <path class="cls-4"
            d="m261.51,200.39H117.62c-31.25,0-56.58,25.33-56.58,56.58v81.31c0,31.25,25.33,56.58,56.58,56.58h108.03l60.58,34.31,12.55,7.11c9.57,5.42,21.44-1.49,21.44-12.5v-164.69c0-32.42-26.28-58.7-58.7-58.7Zm24.72,191.42l-52.6-29.79h-115.74c-12.58,0-22.77-10.21-22.77-22.77v-83.23c0-12.58,10.19-22.77,22.77-22.77h143.07c13.96,0,25.28,11.32,25.28,25.28v133.28Z" />
        <circle class="cls-5" cx="131.47" cy="298.29" r="15.06" />
        <circle class="cls-5" cx="188.57" cy="298.29" r="15.06" />
        <circle class="cls-5" cx="245.68" cy="298.29" r="15.06" />
    </g>
</svg>